<?xml version="1.0" encoding="utf-8"?>
<!-- Generator: Adobe Illustrator 16.0.4, SVG Export Plug-In . SVG Version: 6.00 Build 0)  -->
<!DOCTYPE svg PUBLIC "-//W3C//DTD SVG 1.1//EN" "http://www.w3.org/Graphics/SVG/1.1/DTD/svg11.dtd">
<svg version="1.1" id="Layer_1" xmlns="http://www.w3.org/2000/svg" xmlns:xlink="http://www.w3.org/1999/xlink" x="0px" y="0px"
	 width="504px" height="504px" viewBox="0 0 504 504" enable-background="new 0 0 504 504" xml:space="preserve">
<g>
	<rect x="0" fill="#FBDE34" width="504.67" height="504.502"/>
</g>
<g>
	<path fill="#343433" d="M285.741,422.947c-2.578,1.46-5.771,2.185-9.578,2.185c-3.587,0-6.443-1.119-8.57-3.361
		c-2.132-2.236-3.192-6.942-3.192-14.115v-53.103h36.633v-37.642H264.4v-74.612h-45.372v74.612h-21.174v37.642h21.174v51.758
		c0,10.755,1.239,19.777,3.723,27.056c2.484,7.283,5.929,13.223,10.33,17.812c4.4,4.595,9.704,7.846,15.911,9.746
		c6.207,1.901,12.908,2.857,20.113,2.857c10.528,0,18.931-1.46,25.206-4.369c6.271-2.909,11.201-5.824,14.788-8.738l-17.141-31.593
		C290.389,420.206,288.314,421.492,285.741,422.947z"/>
	<path fill="#343433" d="M420.848,419.586c-4.369,2.805-10.141,4.201-17.309,4.201c-10.309,0-18.206-3.303-23.694-9.914
		c-5.493-6.606-8.234-15.177-8.234-25.711c0-10.083,2.741-18.369,8.234-24.871c5.488-6.496,13.386-9.746,23.694-9.746
		c5.824,0,11.259,1.402,16.301,4.201c5.041,2.804,8.906,6.443,11.595,10.923l32.265-26.215
		c-7.174-9.185-15.408-16.243-24.703-21.174c-9.3-4.926-21.121-7.395-35.457-7.395c-11.206,0-21.567,1.849-31.088,5.546
		c-9.526,3.697-17.813,8.796-24.871,15.292c-7.058,6.501-12.551,14.342-16.468,23.526c-3.923,9.189-5.882,19.157-5.882,29.912
		c0,10.98,1.959,21.063,5.882,30.248c3.917,9.189,9.41,17.088,16.468,23.694c7.058,6.611,15.345,11.763,24.871,15.46
		c9.521,3.697,19.882,5.545,31.088,5.545c14.336,0,26.047-2.353,35.121-7.058s17.193-10.976,24.367-18.821l-30.585-26.887
		C429.082,413.705,425.217,416.787,420.848,419.586z"/>
</g>
</svg>
