<svg version="1.1" xmlns="http://www.w3.org/2000/svg" viewBox="0 0 585 558">
  <!--
    Copyright 2014 Traceur Authors.

    https://raw.github.com/google/traceur-compiler/master/LICENSE

    Made by Isaac Durazo (https://github.com/isaacdurazo)
        and Sean Mize (https://github.com/mize)

    Adapted from the awesome JS logo (https://github.com/voodootikigod/logo.js)
  -->
  <rect x="27" y="27" fill="#fbde33" width="504" height="504"/>
  <path fill="#343433" d="M327.4,450.6c-2.6,1.5-5.8,2.2-9.6,2.2c-3.6,0-6.4-1.1-8.6-3.4c-2.1-2.2-3.2-6.9-3.2-14.1
    v-53.1h36.6v-37.6h-36.6V270h-45.4v74.6h-21.2v37.6h21.2V434c0,10.8,1.2,19.8,3.7,27.1c2.5,7.3,5.9,13.2,10.3,17.8
    c4.4,4.6,9.7,7.8,15.9,9.7c6.2,1.9,12.9,2.9,20.1,2.9c10.5,0,18.9-1.5,25.2-4.4c6.3-2.9,11.2-5.8,14.8-8.7l-17.1-31.6
    C332.1,447.9,330,449.2,327.4,450.6z"/>
  <path fill="#343433" d="M452.1,447.3c-4.4,2.8-10.1,4.2-17.3,4.2c-10.3,0-18.2-3.3-23.7-9.9
  	c-5.5-6.6-8.2-15.2-8.2-25.7c0-10.1,2.7-18.4,8.2-24.9c5.5-6.5,13.4-9.7,23.7-9.7c5.8,0,11.3,1.4,16.3,4.2c5,2.8,8.9,6.4,11.6,10.9
  	l32.3-26.2c-7.2-9.2-15.4-16.2-24.7-21.2c-9.3-4.9-21.1-7.4-35.5-7.4c-11.2,0-21.6,1.8-31.1,5.5c-9.5,3.7-17.8,8.8-24.9,15.3
  	c-7.1,6.5-12.6,14.3-16.5,23.5c-3.9,9.2-5.9,19.2-5.9,29.9c0,11,2,21.1,5.9,30.2c3.9,9.2,9.4,17.1,16.5,23.7
  	c7.1,6.6,15.3,11.8,24.9,15.5c9.5,3.7,19.9,5.5,31.1,5.5c14.3,0,26-2.4,35.1-7.1c9.1-4.7,17.2-11,24.4-18.8L463.7,438
  	C460.4,441.4,456.5,444.5,452.1,447.3z"/>
  <polygon fill="#343433" points="558,537 21,537 21,21 537,21 537,504 525,504 525,33 33,33 33,525 558,525 "/>
  <polygon fill="#343433" points="554.7,506.2 554.7,555.8 579.5,531 "/>
</svg>
